<svg width="84" height="84" viewBox="0 0 84 84" fill="none" xmlns="http://www.w3.org/2000/svg">
<path d="M42.0001 7C47.5696 7 52.911 9.21249 56.8493 13.1508C60.7876 17.089 63.0001 22.4305 63.0001 28V31.5H77.0001V38.5H72.9156L70.2661 70.2905C70.1932 71.1651 69.7944 71.9804 69.1488 72.5749C68.5031 73.1693 67.6577 73.4995 66.7801 73.5H17.2201C16.3424 73.4995 15.497 73.1693 14.8513 72.5749C14.2057 71.9804 13.8069 71.1651 13.7341 70.2905L11.0811 38.5H7.00006V31.5H21.0001V28C21.0001 22.4305 23.2126 17.089 27.1508 13.1508C31.0891 9.21249 36.4305 7 42.0001 7ZM65.8911 38.5H18.1056L20.4401 66.5H63.5566L65.8911 38.5ZM45.5001 45.5V59.5H38.5001V45.5H45.5001ZM31.5001 45.5V59.5H24.5001V45.5H31.5001ZM59.5001 45.5V59.5H52.5001V45.5H59.5001ZM42.0001 14C38.4082 14 34.9538 15.3805 32.3512 17.856C29.7487 20.3315 28.1972 23.7126 28.0176 27.3L28.0001 28V31.5H56.0001V28C56.0001 24.4082 54.6195 20.9537 52.144 18.3512C49.6685 15.7486 46.2874 14.1971 42.7001 14.0175L42.0001 14Z" fill="black"/>
</svg>
