<svg width="70" height="70" viewBox="0 0 70 70" fill="none" xmlns="http://www.w3.org/2000/svg">
<circle cx="35" cy="35" r="35" fill="white"/>
<path fill-rule="evenodd" clip-rule="evenodd" d="M35 14.1665C29.3417 14.1665 28.6333 14.1915 26.4104 14.2915C24.1937 14.3936 22.6792 14.7457 21.3542 15.2603C19.9635 15.7828 18.7036 16.6026 17.6625 17.6623C16.6028 18.7035 15.7831 19.9634 15.2604 21.354C14.7458 22.679 14.3937 24.1936 14.2917 26.4103C14.1896 28.6332 14.1667 29.3415 14.1667 34.9998C14.1667 40.6582 14.1896 41.3665 14.2917 43.5894C14.3937 45.8061 14.7458 47.3207 15.2604 48.6457C15.7831 50.0363 16.6029 51.2961 17.6625 52.3373C18.7037 53.397 19.9636 54.2167 21.3542 54.7394C22.6792 55.254 24.1937 55.6061 26.4104 55.7082C28.6333 55.8082 29.3417 55.8332 35 55.8332C40.6583 55.8332 41.3667 55.8082 43.5896 55.7082C45.8062 55.6061 47.3208 55.254 48.6458 54.7394C50.0364 54.2168 51.2963 53.397 52.3375 52.3373C53.3972 51.2961 54.2169 50.0363 54.7396 48.6457C55.2542 47.3207 55.6062 45.8061 55.7083 43.5894C55.8083 41.3665 55.8333 40.6582 55.8333 34.9998C55.8333 29.3415 55.8083 28.6332 55.7083 26.4103C55.6062 24.1936 55.2542 22.679 54.7396 21.354C54.2169 19.9634 53.3972 18.7035 52.3375 17.6623C51.2963 16.6026 50.0365 15.7828 48.6458 15.2603C47.3208 14.7457 45.8062 14.3936 43.5896 14.2915C41.3667 14.1915 40.6583 14.1665 35 14.1665ZM35 17.9207C40.5625 17.9207 41.2208 17.9415 43.4167 18.0415C45.45 18.1353 46.5521 18.4728 47.2875 18.7582C48.2583 19.1373 48.9542 19.5894 49.6833 20.3165C50.4125 21.0457 50.8625 21.7415 51.2417 22.7123C51.525 23.4478 51.8667 24.5498 51.9583 26.5811C52.0583 28.779 52.0792 29.4353 52.0792 34.9998C52.0792 40.5623 52.0583 41.2207 51.9583 43.4165C51.8646 45.4498 51.525 46.5519 51.2417 47.2873C50.9077 48.1923 50.3752 49.011 49.6833 49.6832C48.9542 50.4123 48.2583 50.8623 47.2875 51.2415C46.5521 51.5248 45.45 51.8665 43.4187 51.9582C41.2229 52.0582 40.5646 52.079 35 52.079C29.4375 52.079 28.7771 52.0582 26.5833 51.9582C24.55 51.8644 23.4479 51.5248 22.7125 51.2415C21.8075 50.9076 20.9888 50.3751 20.3167 49.6832C19.6247 49.0111 19.0922 48.1924 18.7583 47.2873C18.4729 46.5519 18.1333 45.4498 18.0417 43.4186C17.9417 41.2207 17.9208 40.5644 17.9208 34.9998C17.9208 29.4373 17.9417 28.779 18.0417 26.5832C18.1354 24.5498 18.4729 23.4478 18.7583 22.7123C19.1375 21.7415 19.5896 21.0457 20.3167 20.3165C21.0458 19.5873 21.7417 19.1373 22.7125 18.7582C23.4479 18.4728 24.55 18.1332 26.5812 18.0415C28.7792 17.9415 29.4354 17.9207 35 17.9207ZM35 41.9436C33.1584 41.9436 31.3922 41.212 30.09 39.9098C28.7878 38.6076 28.0562 36.8414 28.0562 34.9998C28.0562 33.1582 28.7878 31.3921 30.09 30.0899C31.3922 28.7877 33.1584 28.0561 35 28.0561C36.8416 28.0561 38.6078 28.7877 39.91 30.0899C41.2122 31.3921 41.9437 33.1582 41.9437 34.9998C41.9437 36.8414 41.2122 38.6076 39.91 39.9098C38.6078 41.212 36.8416 41.9436 35 41.9436M35 24.3019C33.5951 24.3019 32.204 24.5786 30.9061 25.1163C29.6081 25.6539 28.4288 26.4419 27.4354 27.4353C26.442 28.4287 25.654 29.608 25.1164 30.9059C24.5788 32.2039 24.3021 33.595 24.3021 34.9998C24.3021 36.4047 24.5788 37.7958 25.1164 39.0938C25.654 40.3917 26.442 41.571 27.4354 42.5644C28.4288 43.5578 29.6081 44.3458 30.9061 44.8834C32.204 45.421 33.5951 45.6978 35 45.6978C37.8373 45.6978 40.5583 44.5707 42.5646 42.5644C44.5708 40.5582 45.6979 37.8371 45.6979 34.9998C45.6979 32.1626 44.5708 29.4415 42.5646 27.4353C40.5583 25.429 37.8373 24.3019 35 24.3019M48.6208 23.879C48.6208 24.2073 48.5562 24.5324 48.4305 24.8357C48.3049 25.139 48.1207 25.4146 47.8886 25.6468C47.6564 25.8789 47.3808 26.0631 47.0775 26.1887C46.7742 26.3143 46.4491 26.379 46.1208 26.379C45.7925 26.379 45.4674 26.3143 45.1641 26.1887C44.8608 26.0631 44.5852 25.8789 44.3531 25.6468C44.1209 25.4146 43.9368 25.139 43.8111 24.8357C43.6855 24.5324 43.6208 24.2073 43.6208 23.879C43.6208 23.216 43.8842 22.5801 44.3531 22.1112C44.8219 21.6424 45.4578 21.379 46.1208 21.379C46.7839 21.379 47.4197 21.6424 47.8886 22.1112C48.3574 22.5801 48.6208 23.216 48.6208 23.879" fill="black"/>
</svg>
