<svg width="355" height="51" viewBox="0 0 355 51" fill="none" xmlns="http://www.w3.org/2000/svg">
<path d="M26.541 10.3389V38H16.9951V17.4434H9.8418V38H0.295898V10.3389H26.541ZM50.0518 9.85059C53.1117 9.85059 55.5124 11.0794 57.2539 13.5371C58.9954 15.9785 59.8662 19.5023 59.8662 24.1084C59.8662 27.2497 59.4268 29.8945 58.5479 32.043C57.6689 34.1751 56.4645 35.7865 54.9346 36.877C53.4209 37.9512 51.6956 38.4883 49.7588 38.4883C48.4567 38.4883 47.3499 38.3255 46.4385 38C45.5433 37.6745 44.7946 37.2676 44.1924 36.7793C43.6064 36.291 43.11 35.7946 42.7031 35.29H42.4102C42.4915 35.9248 42.5566 36.6084 42.6055 37.3408C42.6706 38.0732 42.7031 38.9277 42.7031 39.9043V50.0117H33.1572V10.3389H40.9209L42.2637 13.8545H42.7031C43.1589 13.1383 43.7122 12.4792 44.3633 11.877C45.0143 11.2585 45.8037 10.7702 46.7314 10.4121C47.6755 10.0378 48.7822 9.85059 50.0518 9.85059ZM46.4629 17.3457C45.5352 17.3457 44.8027 17.5654 44.2656 18.0049C43.7285 18.4443 43.3379 19.1117 43.0938 20.0068C42.8659 20.8857 42.7357 21.9844 42.7031 23.3027V24.0596C42.7031 25.5244 42.8171 26.7614 43.0449 27.7705C43.2728 28.7633 43.6634 29.5202 44.2168 30.041C44.7702 30.5456 45.5352 30.7979 46.5117 30.7979C47.3092 30.7979 47.9766 30.57 48.5137 30.1143C49.0508 29.6585 49.4577 28.9342 49.7344 27.9414C50.0111 26.9486 50.1494 25.6383 50.1494 24.0107C50.1494 21.5856 49.832 19.8685 49.1973 18.8594C48.5788 17.8503 47.6673 17.3457 46.4629 17.3457ZM91.751 24.1084C91.751 26.4196 91.4336 28.4704 90.7988 30.2607C90.1641 32.0511 89.2445 33.5566 88.04 34.7773C86.8356 35.998 85.3789 36.9258 83.6699 37.5605C81.9609 38.179 80.0322 38.4883 77.8838 38.4883C75.8818 38.4883 74.0426 38.179 72.3662 37.5605C70.7061 36.9258 69.2575 35.998 68.0205 34.7773C66.7835 33.5566 65.8232 32.0511 65.1396 30.2607C64.4723 28.4704 64.1387 26.4196 64.1387 24.1084C64.1387 21.0485 64.6921 18.4606 65.7988 16.3447C66.9219 14.2288 68.5169 12.6175 70.584 11.5107C72.6673 10.404 75.1494 9.85059 78.0303 9.85059C80.6833 9.85059 83.0433 10.404 85.1104 11.5107C87.1774 12.6175 88.7969 14.2288 89.9688 16.3447C91.1569 18.4606 91.751 21.0485 91.751 24.1084ZM73.8311 24.1084C73.8311 25.6872 73.9694 27.0218 74.2461 28.1123C74.5228 29.1865 74.9622 30.0085 75.5645 30.5781C76.1829 31.1315 76.9886 31.4082 77.9814 31.4082C78.9743 31.4082 79.7637 31.1315 80.3496 30.5781C80.9355 30.0085 81.3587 29.1865 81.6191 28.1123C81.8958 27.0218 82.0342 25.6872 82.0342 24.1084C82.0342 22.5296 81.8958 21.2113 81.6191 20.1533C81.3587 19.0954 80.9274 18.2979 80.3252 17.7607C79.7393 17.2236 78.9417 16.9551 77.9326 16.9551C76.484 16.9551 75.4342 17.5573 74.7832 18.7617C74.1484 19.9661 73.8311 21.7484 73.8311 24.1084ZM109.817 38.4883C107.018 38.4883 104.585 37.9919 102.518 36.999C100.451 35.9899 98.8473 34.4437 97.708 32.3604C96.585 30.2607 96.0234 27.5752 96.0234 24.3037C96.0234 20.9508 96.6501 18.2083 97.9033 16.0762C99.1729 13.944 100.906 12.3734 103.104 11.3643C105.301 10.3551 107.791 9.85059 110.574 9.85059C112.267 9.85059 113.87 10.0378 115.384 10.4121C116.914 10.7865 118.33 11.2992 119.632 11.9502L116.824 19.0059C115.685 18.5013 114.619 18.1025 113.626 17.8096C112.649 17.5003 111.632 17.3457 110.574 17.3457C109.614 17.3457 108.768 17.598 108.035 18.1025C107.303 18.6071 106.733 19.3721 106.326 20.3975C105.919 21.4066 105.716 22.6924 105.716 24.2549C105.716 25.8499 105.919 27.1357 106.326 28.1123C106.749 29.0889 107.327 29.7969 108.06 30.2363C108.808 30.6758 109.663 30.8955 110.623 30.8955C112.007 30.8955 113.382 30.6839 114.749 30.2607C116.132 29.8213 117.443 29.2191 118.68 28.4541V36.0469C117.54 36.7956 116.255 37.3896 114.822 37.8291C113.39 38.2686 111.722 38.4883 109.817 38.4883ZM149.832 17.4434H140.726V38H131.18V17.4434H122.073V10.3389H149.832V17.4434ZM180.765 24.1084C180.765 26.4196 180.447 28.4704 179.812 30.2607C179.178 32.0511 178.258 33.5566 177.054 34.7773C175.849 35.998 174.393 36.9258 172.684 37.5605C170.975 38.179 169.046 38.4883 166.897 38.4883C164.896 38.4883 163.056 38.179 161.38 37.5605C159.72 36.9258 158.271 35.998 157.034 34.7773C155.797 33.5566 154.837 32.0511 154.153 30.2607C153.486 28.4704 153.152 26.4196 153.152 24.1084C153.152 21.0485 153.706 18.4606 154.812 16.3447C155.936 14.2288 157.531 12.6175 159.598 11.5107C161.681 10.404 164.163 9.85059 167.044 9.85059C169.697 9.85059 172.057 10.404 174.124 11.5107C176.191 12.6175 177.811 14.2288 178.982 16.3447C180.171 18.4606 180.765 21.0485 180.765 24.1084ZM162.845 24.1084C162.845 25.6872 162.983 27.0218 163.26 28.1123C163.536 29.1865 163.976 30.0085 164.578 30.5781C165.197 31.1315 166.002 31.4082 166.995 31.4082C167.988 31.4082 168.777 31.1315 169.363 30.5781C169.949 30.0085 170.372 29.1865 170.633 28.1123C170.91 27.0218 171.048 25.6872 171.048 24.1084C171.048 22.5296 170.91 21.2113 170.633 20.1533C170.372 19.0954 169.941 18.2979 169.339 17.7607C168.753 17.2236 167.955 16.9551 166.946 16.9551C165.498 16.9551 164.448 17.5573 163.797 18.7617C163.162 19.9661 162.845 21.7484 162.845 24.1084Z" fill="#C9FF56"/>
<path d="M186.209 34.9727C186.209 33.638 186.551 32.7021 187.234 32.165C187.934 31.6117 188.781 31.335 189.773 31.335C190.766 31.335 191.613 31.6117 192.312 32.165C193.029 32.7021 193.387 33.638 193.387 34.9727C193.387 36.2747 193.029 37.2188 192.312 37.8047C191.613 38.3743 190.766 38.6592 189.773 38.6592C188.781 38.6592 187.934 38.3743 187.234 37.8047C186.551 37.2188 186.209 36.2747 186.209 34.9727ZM218.924 30.2852C218.924 32.0592 218.493 33.5566 217.63 34.7773C216.767 35.998 215.506 36.9258 213.846 37.5605C212.202 38.179 210.184 38.4883 207.791 38.4883C205.903 38.4883 204.275 38.3499 202.908 38.0732C201.557 37.8128 200.28 37.4059 199.075 36.8525V31.8965C200.361 32.4987 201.801 33.0195 203.396 33.459C205.008 33.8984 206.53 34.1182 207.962 34.1182C209.85 34.1182 211.209 33.8252 212.039 33.2393C212.869 32.637 213.284 31.8395 213.284 30.8467C213.284 30.2607 213.113 29.7399 212.771 29.2842C212.446 28.8122 211.827 28.332 210.916 27.8438C210.021 27.3392 208.702 26.737 206.961 26.0371C205.252 25.3535 203.812 24.6699 202.64 23.9863C201.468 23.3027 200.581 22.4808 199.979 21.5205C199.376 20.5439 199.075 19.2988 199.075 17.7852C199.075 15.3926 200.019 13.5778 201.907 12.3408C203.812 11.0876 206.326 10.4609 209.451 10.4609C211.111 10.4609 212.674 10.6318 214.139 10.9736C215.62 11.2992 217.068 11.7793 218.484 12.4141L216.678 16.7354C215.457 16.1982 214.228 15.7588 212.991 15.417C211.771 15.0589 210.525 14.8799 209.256 14.8799C207.775 14.8799 206.644 15.1077 205.862 15.5635C205.097 16.0192 204.715 16.6702 204.715 17.5166C204.715 18.1514 204.902 18.6885 205.276 19.1279C205.651 19.5674 206.294 20.0068 207.205 20.4463C208.133 20.8857 209.419 21.431 211.062 22.082C212.674 22.7005 214.065 23.3516 215.237 24.0352C216.425 24.7025 217.337 25.5244 217.972 26.501C218.606 27.4775 218.924 28.7389 218.924 30.2852ZM255.667 10.4609C258.694 10.4609 260.973 11.2422 262.503 12.8047C264.049 14.3672 264.822 16.8737 264.822 20.3242V38H259.085V21.3496C259.085 19.2988 258.686 17.7526 257.889 16.7109C257.091 15.6693 255.879 15.1484 254.251 15.1484C251.972 15.1484 250.328 15.8809 249.319 17.3457C248.326 18.7943 247.83 20.902 247.83 23.6689V38H242.093V21.3496C242.093 19.9824 241.914 18.8431 241.556 17.9316C241.214 17.0039 240.685 16.3122 239.969 15.8564C239.253 15.3844 238.349 15.1484 237.259 15.1484C235.68 15.1484 234.419 15.5065 233.475 16.2227C232.547 16.9388 231.88 17.9967 231.473 19.3965C231.066 20.7799 230.862 22.4808 230.862 24.499V38H225.125V10.9736H229.593L230.398 14.6113H230.716C231.269 13.6673 231.953 12.8942 232.767 12.292C233.597 11.6735 234.516 11.2178 235.525 10.9248C236.535 10.6156 237.584 10.4609 238.675 10.4609C240.693 10.4609 242.394 10.819 243.777 11.5352C245.161 12.235 246.194 13.3092 246.878 14.7578H247.317C248.164 13.293 249.344 12.2106 250.857 11.5107C252.371 10.8109 253.974 10.4609 255.667 10.4609ZM296.756 24.4258C296.756 26.6719 296.463 28.6657 295.877 30.4072C295.291 32.1488 294.437 33.6217 293.313 34.8262C292.19 36.0143 290.84 36.9258 289.261 37.5605C287.682 38.179 285.9 38.4883 283.914 38.4883C282.059 38.4883 280.358 38.179 278.812 37.5605C277.265 36.9258 275.923 36.0143 274.783 34.8262C273.66 33.6217 272.789 32.1488 272.171 30.4072C271.552 28.6657 271.243 26.6719 271.243 24.4258C271.243 21.4473 271.756 18.9245 272.781 16.8574C273.823 14.7741 275.304 13.1872 277.225 12.0967C279.145 11.0062 281.432 10.4609 284.085 10.4609C286.575 10.4609 288.772 11.0062 290.677 12.0967C292.581 13.1872 294.07 14.7741 295.145 16.8574C296.219 18.9408 296.756 21.4635 296.756 24.4258ZM277.151 24.4258C277.151 26.3952 277.387 28.0798 277.859 29.4795C278.348 30.8792 279.096 31.9535 280.105 32.7021C281.115 33.4346 282.417 33.8008 284.012 33.8008C285.607 33.8008 286.909 33.4346 287.918 32.7021C288.927 31.9535 289.668 30.8792 290.14 29.4795C290.612 28.0798 290.848 26.3952 290.848 24.4258C290.848 22.4564 290.612 20.7881 290.14 19.4209C289.668 18.0374 288.927 16.9876 287.918 16.2715C286.909 15.5391 285.599 15.1729 283.987 15.1729C281.611 15.1729 279.878 15.9704 278.787 17.5654C277.697 19.1605 277.151 21.4473 277.151 24.4258ZM309.085 0.0117188V18.3711C309.085 19.2012 309.052 20.1126 308.987 21.1055C308.922 22.082 308.857 23.0016 308.792 23.8643H308.914C309.337 23.2946 309.842 22.6273 310.428 21.8623C311.03 21.0973 311.6 20.43 312.137 19.8604L320.389 10.9736H326.98L316.165 22.5947L327.688 38H320.95L312.308 26.1348L309.085 28.8936V38H303.348V0.0117188H309.085ZM342.776 10.4609C345.185 10.4609 347.252 10.9574 348.978 11.9502C350.703 12.943 352.029 14.3509 352.957 16.1738C353.885 17.9967 354.349 20.1777 354.349 22.7168V25.793H336.307C336.372 28.4134 337.072 30.4316 338.406 31.8477C339.757 33.2637 341.645 33.9717 344.07 33.9717C345.796 33.9717 347.342 33.8089 348.709 33.4834C350.092 33.1416 351.517 32.6452 352.981 31.9941V36.6572C351.631 37.292 350.255 37.7559 348.855 38.0488C347.456 38.3418 345.779 38.4883 343.826 38.4883C341.173 38.4883 338.838 37.9756 336.819 36.9502C334.817 35.9085 333.247 34.3623 332.107 32.3115C330.984 30.2607 330.423 27.7135 330.423 24.6699C330.423 21.6426 330.936 19.071 331.961 16.9551C332.986 14.8392 334.427 13.2279 336.282 12.1211C338.138 11.0143 340.302 10.4609 342.776 10.4609ZM342.776 14.7822C340.97 14.7822 339.505 15.3682 338.382 16.54C337.275 17.7119 336.624 19.429 336.429 21.6914H348.733C348.717 20.3405 348.489 19.1442 348.05 18.1025C347.627 17.0609 346.976 16.2471 346.097 15.6611C345.234 15.0752 344.127 14.7822 342.776 14.7822Z" fill="black"/>
</svg>
