<svg width="70" height="70" viewBox="0 0 70 70" fill="none" xmlns="http://www.w3.org/2000/svg">
<path d="M35 1.09375C16.2684 1.09375 1.09375 16.2706 1.09375 35C1.09375 53.7294 16.2706 68.9062 35 68.9062C53.7316 68.9062 68.9062 53.7294 68.9062 35C68.9062 16.2706 53.7294 1.09375 35 1.09375ZM51.6534 24.3228L46.0884 50.5466C45.6772 52.4059 44.5703 52.8566 43.0259 51.9816L34.5494 45.7341L30.4609 49.6716C30.0103 50.1222 29.6275 50.505 28.7525 50.505L29.3541 41.8775L45.0625 27.685C45.7472 27.0834 44.9116 26.7422 44.0081 27.3438L24.5941 39.5653L16.2269 36.9534C14.4091 36.3803 14.3675 35.1356 16.6097 34.2606L49.2997 21.6541C50.8178 21.1072 52.1434 22.0238 51.6512 24.3206L51.6534 24.3228Z" fill="white"/>
</svg>
